<?xml version="1.0" encoding="UTF-8"?><svg id="Layer_2" xmlns="http://www.w3.org/2000/svg" viewBox="0 0 242 231.82"><defs><style>.cls-1{fill:#9932cc;}</style></defs><g id="Layer_1-2"><g><path class="cls-1" d="M207.34,177.39c1.8,.4,3.53,.86,5.21,1.37-6.18-3.37-10.85-8.73-14.71-14.86-5.01-7.95-9.91-17.15-12.19-26.29-2.31-9.27-2.14-18.93-3.71-28.32-1.57-9.39-4.39-18.63-8.32-27.3-3.76-8.29-8.39-16.16-13.33-23.8-4.49-6.96-9.46-13.56-13.04-21.05-6.17-12.93-10.36-27.43-25.09-32.84-15.42-5.67-33.53-5.44-49.2-1.04-8.74,2.45-18.46,6.18-25.67,11.84-5.91,4.63-8.91,12.76-11.5,19.54-7.26,19.03-7.87,40.97-8.95,61.11-.56,10.5-.81,21.03-.69,31.55,.11,9.57,1.39,19.34,.09,28.85-1.16,8.5-4.36,16.84-10.59,22.91C11.02,183.59,5.44,186.94,0,190.44v4.38c4.26-2.83,8.45-5.79,12.85-8.39,1.04-.61,3.5-.61,4.09,.11,6,7.27,12.05,14.53,17.48,22.22,5.23,7.42,9.75,15.35,14.58,23.06h2c-1.75-4.01-3.53-8.01-5.23-12.04-.97-2.31-1.82-4.67-1.87-7.41,6.53,4.92,10.03,11.49,11.1,19.45h54c-.06-3.57-2.78-7.61,1.51-10.55-2.06-3.79-4.39-7.8-6.41-11.96-.45-.93-.07-2.46,.34-3.56,.74-2.03,2.64-4,2.54-5.91-.32-6.03,.3-12.45-4.32-17.44-.66-.71-1.5-1.48-2.38-1.71-7.66-1.95-12-7.82-16.68-13.5-8.12-9.85-16.36-19.61-24.93-29.06-6.9-7.61-8.23-16.53-7.17-26.04,1.37-12.37,.61-24.49-2-36.68-2.61-12.18-.97-24.15,4.02-35.64,3.65-8.4,11.1-12.38,18.87-15.16,11.49-4.12,23.64-5.72,35.81-4.47,7.37,.76,13.65,4.42,18.43,10.55,2.41,3.09,6.08,5.19,8.59,8.23,2.66,3.22,5.26,6.78,6.74,10.63,2.92,7.57,5.04,15.45,7.53,23.19,2.62,8.15,5.89,16.15,7.79,24.46,5.45,23.86-2.09,44.18-18.18,61.85-1.34,1.47-2.77,2.89-4.3,4.17-3.04,2.54-3.94,4.94-1.84,8.97,2.87,5.51,4.85,11.51,6.87,17.42,1.35,3.96,4.71,6.12,6.93,9.1,4.71,6.31,11.05,12.15,11.04,21.29,0,2.57,2.34,5.12,3.55,7.71,.62,1.34,1.12,2.74,1.67,4.11h42c1.23-8-1.44-14.59-6.91-20.41-1.35-1.43-1.64-3.86-1.66-6.2,4.96,4.36,11.07,7.69,10.64,15.7-.2,3.61,.59,7.27,.93,10.91h2c.96-4.7,1.44-9.58,3-14.07,2.53-7.32,.69-13.88-1.55-20.81-1.94-6-2.66-12.38-4.11-19.54Zm-18.55-11.26c-2.61-2.76-5.21-5.53-7.37-7.81,1.65-1.73,2.61-2.74,3.59-3.77l4.92,10.71-1.14,.87Zm4.4,3.96c-1.62-5.22-2.92-9.38-4.5-14.46,4.34,3.23,5.18,6.14,4.5,14.46Z"/><path class="cls-1" d="M221.28,182.13c-1.23-.39-2.46-.79-3.67-1.18-1.8-.58-3.48-1.32-5.07-2.19-1.68-.51-3.41-.97-5.21-1.37,1.45,7.15,2.18,13.54,4.11,19.54,2.24,6.93,4.08,13.5,1.55,20.81-1.56,4.5-2.04,9.37-3,14.07h32v-32c-5.49-7.77-12.23-13.62-20.72-17.69Z"/><path class="cls-1" d="M0,196.82l10.69-3.22,.5,1.22-3.46,4.04c2.32,.93,4.34,1.47,6.09,2.49,4.34,2.52,8.59,5.2,12.74,8.02,.31,.21-.53,2.97-.75,2.95-2.36-.13-5.48-2.83-6.43,1.46-.47,2.15,.65,4.64,1.05,6.99-2.61,.45-4.44-7.14-7.67-1.8-.81-2.95-.86-7.26-3-9.85C7.58,206.48,3.34,205.52,0,203.82c0-2.33,0-4.67,0-7Z"/><path class="cls-1" d="M118.48,140.19l-16.23,2.55-.19-1.08c8.98-2.09,17.97-4.18,26.95-6.27l.84,1.03c-.8,1.24-1.44,2.63-2.44,3.68-2.4,2.53-4.95,4.93-7.48,7.33-1.82,1.72-3.24,2.62-6.38,1.41-3.4-1.3-7.69-.3-11.63-.38,6.42-.71,12.21-2.73,17.03-6.84l-.47-1.43Z"/><path class="cls-1" d="M139.84,94.18c-2.16-1.03-4.24-2.63-6.49-2.92-1.76-.22-3.69,1.34-5.61,1.81-1.31,.32-3.63,.67-3.99,.08-2.78-4.58-5.13-4.73-8.13-.11-1.04,1.6-1.91,3.32-2.91,4.95-.1,.17-.62,.08-.95,.1-.77-4.29,1.3-7.76,5.58-9.35,8.9-3.3,19.18-1.24,22.5,5.43Z"/><path class="cls-1" d="M71.53,100.48l-4.8-7.16c-.58,.34-2.12,1.04-3.38,2.08-1.16,.95-2.03,2.26-3.03,3.41l-1.42-.92c.43-1.05,.6-2.35,1.33-3.12,5.28-5.59,13.11-5.48,18.17,.25,.89,1.01,1.3,2.44,1.93,3.68-1.27,.53-2.51,1.11-3.81,1.56-.61,.21-1.3,.17-1.94,.24,.83-1.69,1.65-3.37,2.47-5.06l-.96-.25-2.61,3.59-3.58-3.89-1.13,.5,2.78,5.1Z"/><path class="cls-1" d="M89.17,147.69l-9.83-6.74c6.55-1.19,8.35,2.55,10.64,5.57l-.81,1.17Z"/><path class="cls-1" d="M71.53,100.48l-2.78-5.1,1.13-.5,3.58,3.89,2.61-3.59,.96,.25c-.82,1.69-1.63,3.37-2.47,5.06-1.02,0-2.03,0-3.03-.01Z"/><path class="cls-1" d="M114.04,118.97l6.35,5.08-5.31,4-1.04-9.07Z"/></g></g></svg>