<?xml version="1.0" encoding="UTF-8"?><svg id="Layer_2" xmlns="http://www.w3.org/2000/svg" viewBox="0 0 242 219.47"><defs><style>.cls-1{fill:#9932cc;}</style></defs><g id="Layer_1-2"><g><path class="cls-1" d="M139.91,42.89c-5.59-2.19-9.99-.97-12.91,3.09-1.9,2.64-2.95,6.73-2.55,9.94,.4,3.22,2.77,6.39,4.89,9.1,.98,1.25,3.47,1.89,5.18,1.74,.82-.07,1.4-2.64,2.14-4.05,.85-1.63,1.75-3.24,3.26-6.02,.29,.69,.56,1.37,.83,2.05-.94-4.92-1.47-9.93-.95-14.94,.03-.3,.07-.61,.12-.91Z"/><path class="cls-1" d="M236.97,201.61c-2.76,3.99-5.52,7.98-8.28,11.96-.63-.49-1.26-.98-1.89-1.47,2.95-3.89,5.9-7.79,8.85-11.68,.33,.24,.66,.48,.99,.72-.77-1.11-1.51-2.23-2.25-3.33-1.63-2.44-3.27-4.68-4.99-6.85-2.68,3.31-5.6,6.5-8.52,9.95-5.18-2.23-7.12-1.45-10.04,4.75-1.55,3.29-7.02,6.42-13.54,7.27,2.72-4.77,1.14-10.07,6.89-13.8,6.83-4.43,13.18-9.61,19.49-14.83-.52-.56-1.05-1.12-1.6-1.69-1.69-1.75-3.35-3.5-5.03-5.24-2.17,.71-4.01,.69-4.51-1.85-.17-.86-.28-1.91-.29-2.93-2.74-2.61-5.59-5.11-8.72-7.34-2.2-1.57-4.43-3.1-6.65-4.64-1.96,.01-3.96-.4-5.79-.84-7.67-1.85-14.72-5.56-22.08-8.31-10.83-4.04-22-5.65-33.34-3.1-3.95,.89-6.81-2.36-6.15-6.15,1.37-7.84,4.68-14.79,7.18-22.26,2.43-7.29,3.8-14.87,5.93-22.24,1.91-6.62,3.3-12.41,2.42-19.29,.05,6.67-1.56,13.15-5.27,19.69-3.12-4.35-6.13-8.53-9.14-12.73,1.15-1.41,2.04-2.5,3.45-4.23-2.39-.81-4.38-2.13-6.23-1.96-3.97,.36-7.85,1.94-11.81,2.12-1.76,.08-3.61-2.02-5.73-3.31,.21,1.45-.09,4.09,1.01,5.86,1.87,3.01,.53,4.8-1.81,5.44-6.4,1.74-10.11,5.99-12.47,13.2-3.4-4.93-7.29-7.92-7.8-13.45-.17-1.82-1.96-3.93-3.59-5.11-5.34-3.86-10.94-7.36-16.44-11-.14-.09-.26-.21-.37-.33-5.34-5.61-3.52-25.45,2.33-30.54,4.72-4.11,3.96-10.1,3.51-15.62-.23-2.83-2.61-7.31-1.64-8.08,3.2-2.58,7.43-3.95,11.38-5.49,1.28-.49,3.29-.61,4.33,.07,4.6,3.03,9.26,1.43,13.17-.48,9.33-4.55,18.49-4.11,27.16,.52,3.27,1.74,5.93,5.94,7.3,9.61,1.89,5.06,2.98,10.43,4.39,16.55,1.03-3.57,2.44-7.09,2.54-10.68,.16-5.92-5.51-11.37-8.99-15.66-3.29-4.06-6.53-8.59-11.35-10.97-8.13-4-18.56-.41-27,.72-10.34,1.38-21.28,2.24-30.97,6.42-5,2.16-8.34,5.26-12.04,9.08-3.58,3.69-8.74,6.55-11.29,11.12-4.4,7.89-4.28,19.14-5.56,27.93-1.71,11.68-.44,25.7,7.21,35.26,4.85,6.06,15.73,10.78,15.08,19.9-.04,.51-.14,.97-.29,1.4,.49,.72,.78,1.63,.78,2.73v12.58c0,.78-.15,1.47-.41,2.06,1.81,1.35,3.8,2.83,5.94,4.43-1.01-9.34-1.89-17.42-2.76-25.5,.39-.35,.77-.7,1.16-1.05,1.89,1.45,4.43,2.52,5.55,4.42,2.77,4.7,4.69,9.91,7.38,14.66,1.32,2.34,3.33,4.51,5.52,6.09,4.51,3.27,9.34,6.07,14.03,9.09,.94,.61,2.7,1.6,2.59,1.95-1.97,6.33,4.29,5.93,6.88,7.71,5.37,3.7,6.11,7.62,.89,11.73-5.35,4.22-5.29,8.19,.8,13.29,1.13-1.8,2.58-3.39,3.23-5.27,2.98-8.59,5.65-17.29,8.59-25.89,1.31-3.82,3.01-7.5,4.53-11.25l1.39,.23c.3,.97,.85,1.94,.85,2.91-.01,3.83-.08,7.67-.34,11.48-.4,5.82-.52,11.26,6.92,13.05,1.56,.38,2.96,2.13,4.08,3.54,8.33,10.51,20.02,16.85,30.68,24.35,4.71,3.32,10.87,4.58,16.78,6.93,7.94-4.78,8.03-5.02,5.95-14.6-.38-1.77-1.15-3.73-.72-5.33,.39-1.45,2-3.12,3.41-3.54,.97-.29,2.93,1.13,3.72,2.29,1.16,1.7,1.66,3.85,2.77,6.64,.8-1.57,1.46-2.32,1.54-3.12,.59-5.71,2.14-6.74,6.62-3.26,3.2,2.48,5.5,6.12,8.2,9.25-.39,.54-.78,1.08-1.17,1.61-2.49-.44-4.98-.85-7.46-1.32-4.2-.8-7.07,.47-8.46,4.82-2.08,6.54-5.12,12.15-12.64,14.12-1.66,.44-3.07,3.07-3.95,4.99-1.3,2.84-2.02,5.95-2.98,8.95h64v-11.8c-1.89-1.8-3.51-3.9-5.03-6.05ZM59.23,92.81c-6.95,6.25-10.32,5.97-14.52-2.61-2.63-5.36-3.66-11.49-5.41-17.28,.4-.12,.79-.25,1.19-.37,.28,.7,.56,1.4,.92,2.27,1.51-2,2.96-3.9,4.34-5.73,6.15,2.25,6.33,3.02,2.29,7.5-.96,1.06-1.64,2.37-1.85,4.5,2.63-1.05,5.21-2.27,7.91-3.08,1.41-.42,3.41-.74,4.48-.07,3.79,2.38,4.04,11.83,.65,14.88Zm3.12,14.15c-.49-2.02-.46-4.16-.62-6.26,.63-.1,1.25-.21,1.88-.31,.76,2.22,1.51,4.45,2.72,7.98-2.1-.7-3.84-.86-3.98-1.4Zm24.68-9.96c-.37,1.95-3.35,3.4-5.9,5.77-2.67-2.24-5.89-3.68-5.96-5.25-.15-3.6,2.85-5.29,6.42-5.33,3.25-.03,6.06,1.54,5.44,4.81Zm29.95,8.92c5.42-3.47,10.63-3.01,15.51-2.42,2.98,.36,4.4,7.8,2.33,13.73-2.88-9.02-11.91-6.62-17.84-11.3Z"/><path class="cls-1" d="M54.9,134.14c-11.11,1.75-21.32,6.78-31.1,12.11-7.94,4.33-16,8.53-23.8,13.13v1.06c6.97-2.57,13.91-5.21,20.91-7.69,4.16-1.47,8.35-2.91,12.64-3.89,1.26-.29,3.31,.68,4.28,1.73,2.79,3.05,5.43,6.29,7.74,9.72,5.94,8.83,11.36,18.02,17.57,26.64,5.57,7.73,9.42,16.06,11.24,25.32,.45,2.28-.22,4.78-.37,7.18h25c-1.74-1.84-3.48-3.69-6.02-6.38-.42,2.36-.59,3.34-.92,5.19-1.66-2.01-3.39-3.39-4.18-5.18-5.74-13.11-11.22-26.33-16.93-39.45-3.05-7.01-6.68-13.78-9.45-20.89-.97-2.49-.16-5.68-.16-8.55,.61-.21,1.22-.42,1.83-.63,2.36,2.21,4.86,4.29,7.05,6.65,6.67,7.21,13.22,14.55,19.84,21.82,2.53,2.78,4.89,5.46,2.67,9.69-.52,.98,.3,2.66,.59,4.59,4.69-3.05,8.44-2.16,11.65,.99,8.76,8.6,17.5,17.22,26.04,26.03,1.5,1.55,2.02,4.05,2.99,6.12h6c-27.8-29.3-55.58-58.6-82.34-86.8-.59,.74-1.49,1.28-2.76,1.48Z"/><path class="cls-1" d="M144,219.47c-1.97-2.04-3.89-4.12-5.91-6.1-3.3-3.24-5.07-6.74-5.52-11.72-.6-6.65-3.43-13.06-4.69-19.69-1.08-5.75-1.3-11.67-1.93-17.84,3.43,1.28,6.47,2.72,7.68,6.97,2.38,8.31,5.18,16.5,7.74,24.76,1.16,3.76,1.92,7.4,5.38,10.3,1.61,1.35,1.23,5.32,1.32,8.12,.06,1.72-.68,3.47-1.07,5.2h-3Z"/><path class="cls-1" d="M212.25,172.6c0,1.03,.12,2.07,.29,2.93,.51,2.54,2.34,2.56,4.51,1.85-1.58-1.63-3.17-3.22-4.8-4.78Z"/><path class="cls-1" d="M226.8,212.1c.63,.49,1.26,.98,1.89,1.47,2.76-3.99,5.52-7.98,8.28-11.96-.11-.16-.22-.31-.33-.46-.33-.24-.66-.48-.99-.72"/><path class="cls-1" d="M93.15,40.28c6.5,1.14,13.04,2.1,19.49,3.48,3.42,.73,4.58,3.45,4.39,6.87-.32,5.62-8.77,17.83-14.18,18.04-4.55,.17-9.5-2.09-13.74-4.3-2.98-1.55-5.81-4.43-7.38-7.41-3.89-7.37,2.85-16.67,11.43-16.68Z"/></g></g></svg>