<?xml version="1.0" encoding="UTF-8"?><svg id="Layer_2" xmlns="http://www.w3.org/2000/svg" viewBox="0 0 224 219.97"><defs><style>.cls-1{fill:#9932cc;}</style></defs><g id="Layer_1-2"><g><path class="cls-1" d="M.02,217.54c.67-2.54,1.54-5.05,1.96-7.63,.85-5.16,1.54-10.35,2.11-15.54,.24-2.19,.01-4.43,.04-6.65,.03-2.14-.55-4.61,.31-6.36,3.7-7.49,7.16-15.24,12.03-21.94,3.35-4.61,8.46-8.38,13.51-11.25,8.93-5.08,18.48-9.07,27.66-13.74,6.34-3.22,12.49-6.8,17.98-9.81,1.48,9,3.03,18.43,4.58,27.86l1.52-.17c2.59-6.2,5.93-11.66,12.91-13.76,3.65-1.1,4.56,.58,4.14,3.74-.37,2.81-.87,5.6-2.04,8.58,6.57,8.04,14.95,14.59,24.94,18.81,3.96,1.67,5.17-.41,5.87-4.64,.45-2.67,3.35-5.09,5.51-7.26,1.48-1.5,3.69-2.26,5.38-3.58,1.28-1,2.83-2.21,3.26-3.63,1.81-5.97,3.31-12.05,4.77-18.12,.21-.89-.39-1.97-.68-3.25-5.24,4.16-2.2,13.4-11.2,15-.95-6.22-1.86-12.26-2.77-18.26-2.15,.96-4.39,2.3-6.82,2.96-3.18,.86-5.44-.36-6.28-3.85-.6-2.49-1.55-4.89-2.48-7.78,3.72-.25,6.9-.04,9.86-.76,3.66-.89,7.32-2.2,10.65-3.95,4.87-2.57,5.97-2.55,8.38,2.51,1.33,2.79,2.08,5.85,3.21,8.74,.59,1.5,1.45,2.89,3.18,3.86l-1-3.48c.44-.27,.75-.62,.95-.56,11.16,3.11,22.4,5.96,33.4,9.56,3.55,1.16,6.94,3.84,9.55,6.63,8.3,8.87,12.31,19.77,14.65,31.59,1.34,6.75,4.2,13.2,6.37,19.78,.47,1.42,.92,2.84,1.35,4.28,2.41,8.02,4.81,16.04,7.22,24.06-73.33,0-146.66,.01-219.99-.1-1.26,0-4.3,2.04-3.99-1.9Z"/><path class="cls-1" d="M152.37,48.49c-1.65-7.42-2.43-15.18-5.17-22.17-3.9-9.95-9.1-11.17-18.9-7.14-3.22,1.33-7.45,2.17-10.64,1.25-7.73-2.24-14.99-2.49-22.96-.79-4.93,1.05-7.9,3.24-9.17,7.13-1.96,6.01-2.8,12.39-4.12,18.61l1.46,.38c.58-1.94,1.17-3.89,1.75-5.83l.55,.09-2.58,24.43c-5.54-6.56-5.74-6.81-8.49-16.05-2.14-7.17-1.46-14.36,1.82-20.86,2.33-4.61,5.57-9.12,9.4-12.56C96.02,5.43,107.43-3.14,123.25,1.12c16.63,4.48,23.23,7.77,28.96,27.73,3.33,11.58,3.53,22.8,2.3,34.69-.76-5.25-1.48-10.21-2.2-15.18l.06,.13Z"/><path class="cls-1" d="M116.39,91.49l15.6-2.45,.11-1.73c-1.93-.3-3.87-.6-6.18-.95l6.61-4.36c-5.37-2.31-9.64-4.14-15.22-6.54,2.36-1.08,4.74-2.95,5.59-2.42,5.69,3.62,9.04-1.72,13.4-2.99,.3-.09,.6-.21,1.73-.61,.51,6.07,8.07,10.35,3.44,17.5-2.52,3.89-5.62,6.7-11.02,6.07-4.63-.54-9.37-.11-14.06-.11v-1.4Z"/><path class="cls-1" d="M152.31,48.36c-.72,3.11-1.44,6.22-2.19,9.46-4.5-1.08-8.98-2.16-13.46-3.23l.03-1.64c2.89-.13,5.79-.27,9.61-.44-.6-1.94-1.28-4.08-1.95-6.23-2.98,.93-6.27,1.36-8.84,2.95-2.11,1.3-3.36,3.98-4.99,6.06-4.28-4.09-4.06-5.74,1.06-8.27,.74-.37,1.45-.81,2.12-1.29,7.35-5.27,12.84-4.47,18.66,2.76,0,.02-.05-.12-.05-.12Z"/><path class="cls-1" d="M90.09,123.04c-3.43-6.82-4.89-12.66-1.7-18.62l1.7-.04v18.67Z"/><path class="cls-1" d="M145.68,100.32c1.6-3.97,3.21-7.93,4.81-11.9l1.29,.5-3.88,12.34-2.22-.95Z"/></g></g></svg>