<?xml version="1.0" encoding="UTF-8"?><svg id="Layer_2" xmlns="http://www.w3.org/2000/svg" viewBox="0 0 228.19 223.29"><defs><style>.cls-1{fill:#9932cc;}</style></defs><g id="Layer_1-2"><g><path class="cls-1" d="M0,223.29c1.71-5.81,4.3-11.03,9.51-14.55,1.65-1.12,3.43-2.09,4.9-3.42,11.1-10.02,25.39-11.8,39.03-15.32,6.75-1.74,13.39-3.91,20.2-5.93,0-1.24,.14-2.21-.02-3.13-.59-3.31,1.55-3.66,3.46-2.51,6.69,4.04,13.37,2.75,20.25,.82,9.61-2.7,19.28-5.17,28.91-7.79,.89-.24,2.25-.71,2.42-1.34,.99-3.68,4.08-3.08,6.68-3.96,2.35-.79,6.1-3.03,6-4.38-.27-3.62-1.65-7.56-3.78-10.51-2.12-2.93-5.24-1.4-7.83,.69-5.18,4.16-10.31,8.41-15.78,12.16-6.95,4.77-14.85,7.08-23.19,7.76l-.6-1.18c3.07-1.63,5.98-4.02,9.25-4.74,14.61-3.22,24.03-13.15,32.21-24.52,1.46-2.03,1.47-5.87,.79-8.53-5.68-22.23-12.14-44.27-17.37-66.6-2.42-10.35-7.34-18.84-15.32-24.94-7.98-6.1-16.09-13.83-26.75-13.73-7.17,.07-14.35,3.56-21.43,5.81-2.97,.95-5.66,2.76-8.56,3.96-5.15,2.14-9.42,5.26-11.15,10.74-2.19,6.9-4,13.92-6.2,21.67,5.06,.25,8.76,.44,12.47,.63l.19,1.86c-2.45,.66-4.95,1.2-7.34,2.04-1.31,.46-2.97,1.12-3.57,2.19-1.94,3.46,.35,12.11,3.61,14.88,3.77-6.45,7.3-8.98,12.05-7.44,5.99,1.94,10.82,3.26,10.19,10.05-1.26-.41-2.36-1.01-3.49-1.06-1.46-.06-3.12-.04-4.39,.58-4.22,2.05-8.36,4.31-12.42,6.67-1.26,.73-2.69,1.85-3.19,3.13-3.62,9.29-3.91,18.61,1.09,27.51,6.92,12.31,13.88,24.62,21.35,36.61,2.1,3.37,6.05,5.59,9.79,8.89-1.9,.74-2.58,1.01-2.96,1.16,1.96,.99,4.21,2.14,6.46,3.28l-.67,1.94c-5.6-.41-11.19-.88-16.79-1.2-2.2-.12-4.51,.51-6.61,.05-2.29-.5-4.92-1.34-6.49-2.94-9.26-9.39-14.05-20.58-15.64-33.92-1.56-13.08-3.44-26.11-4.34-39.28-.45-6.59-2.2-13.16-2.07-19.71,.36-19,2.15-37.88,12.65-54.49,4.01-6.34,8.14-13.32,13.97-17.63C46.67,8.28,53.83,1.64,63.51,.7c5.95-.57,11.97-.57,17.95-.45,1.8,.04,3.57,1.35,5.15,1.08,5.37-.45,10.73-.97,16.1-1.33,3.11-.21,6.06,2.83,9.45,.24,.65-.5,2.81,.64,4.08,1.36,14.92,8.38,26.12,20.03,31.9,36.42,.38,1.09,.74,2.25,1.38,3.19,14.04,20.71,22.25,43.97,29.67,67.58,1.62,5.16,3.52,10.22,5.25,15.34,4.6,13.61,.23,26.94-11.16,33.44-2.95,1.68-6.29,2.7-9.74,4.14,.56,4.19,2.21,7.61,6.24,9.86,11.17,6.23,22.29,12.55,33.36,18.96,6.98,4.04,13.82,8.32,20.74,12.46,3.16,1.89,4.56,4.48,4.27,8.28-.3,3.98-.02,7.99,0,11.99h-95.07l9.72-15.96-1.17-.95c-1.24,.32-2.47,.64-3.71,.97-11.99,3.22-23.87,6.99-36.02,9.42-5.82,1.16-12.21,.24-18.23-.58-4.83-.66-14.42-.38-18.64,1.75-.44,.22-1.11,.2-1.38,.53-1.27,1.57-2.43,3.21-3.63,4.83H0ZM148.96,56.79l-1.17,.44c3.58,11.53,7.66,22.93,10.6,34.63,2.93,11.63,4.7,23.55,6.98,35.35l1.88-.41c-2.63-23.57-7.91-46.6-14.37-69.38l-1.38,.23,.35,4.75c-1.31-2.53-2.11-4.07-2.9-5.6Zm-23.46-3.39l-2.41,.43c.95,4.37,1.91,8.73,2.86,13.1l1.15-.26c-.53-4.42-1.06-8.85-1.59-13.27Zm22.18,56.38l.89-.36c-1.4-4.79-2.8-9.58-4.2-14.37l-2.15,.73c1.82,4.67,3.64,9.34,5.46,14Z"/><path class="cls-1" d="M81.84,77.36c3.54-5.89,14.48-5.92,17.78-.4,.42,.71,.84,1.46,1.03,2.25,.41,1.68,.67,3.4,.99,5.1-2.18,.27-5.19,1.6-6.4,.64-5.1-4.03-9.55-3-14.15,.97l-.58-1.32c3.05-2.02,6.1-4.04,9.16-6.06l-.19-1.18h-7.63Z"/><path class="cls-1" d="M77.03,63.93c6.86-4.26,13.53-9.46,21.13-5.2-6.46,1.59-13.8,3.4-21.13,5.2Z"/><path class="cls-1" d="M89.15,136.38c-8.99,1.7-17.98,3.4-26.97,5.1l-.3-1.72c9-1.63,18-3.26,27.01-4.89l.26,1.51Z"/></g></g></svg>