<?xml version="1.0" encoding="UTF-8"?><svg id="Layer_2" xmlns="http://www.w3.org/2000/svg" viewBox="0 0 210.37 222.13"><defs><style>.cls-1{fill:#9932cc;}</style></defs><g id="Layer_1-2"><g><path class="cls-1" d="M58.32,189.05c-3.39,1.16-6.96,.87-10.45,1.33-3.43,.45-6.64,1.91-9.67,3.52-6.85,3.63-13.57,7.68-19.53,12.65-6.16,5.13-12.1,10.89-18.67,15.58H210.37c-2.07-1.44-4.15-2.85-6.27-4.21-10.88-6.97-25.18-15.91-38.67-12.15-3.36,.94-7.61-2.5-6.15-6.15,5.68-14.22,11-28.62,15.05-43.4,2.24-8.16,4.32-16.58,4.71-25.07,.13-2.9,.17-5.88-.58-8.71-.23-.87-.43-1.53-.79-2.19-4.02,19.48-10.3,37.96-23.34,53.53,.84,.68,2.51,1.62,2.39,2-1.47,4.63-3.16,9.2-4.88,13.75-.4,1.06-1.43,1.96-1.61,3.03-2.01,12.41-11.73,16.17-21.88,17.92-6.87,1.18-14.26,.01-21.31-.92-2.6-.34-5.17-2.75-7.2-4.77-.85-.85-.25-3.15-.31-4.78,1.67-.06,3.59-.68,4.96-.06,2.8,1.27,5.31,3.2,7.89,4.83,6.18-8.54,16.21-6.51,23.84-11.52,.58,2.61,.88,4,1.19,5.38,.43,.15,.86,.3,1.29,.45,1.3-3.87,2.91-7.67,3.83-11.62,1.14-4.87,3.69-8.46,7.96-10.92-5.83,2.45-11.74,4.76-15.54,10.31-.52,.76-1.57,1.23-2.46,1.65-11.78,5.57-30.22,2.16-39.89-6.61-6.46-5.86-14.25-10.3-18.85-18.08-2.36-3.99-5.08-7.83-6.88-12.06-1.86-4.36-1.14-5.16,3.48-6.8,.76-6.89-6.34-9.67-8.52-15.27-.24,2.03-.48,4.07-.72,6.1-.3,.02-.61,.04-.91,.06-.83-7.04-1.66-14.09-2.65-22.55,1.71,1.83,2.46,2.63,4.09,4.37,.45-4.96,.58-8.89,1.25-12.73,.33-1.89,1.36-4.84,2.56-5.1,1.59-.35,3.64,1.5,5.52,2.34,2.07,.93,4.14,2.45,6.27,2.57,7.29,.39,14.6,.42,21.9,.28,3.47-.07,6.97-.64,10.33-1.51,.63-.16,1.23-3.05,.79-4.31-3.76-10.64-12.78-13.7-22.72-14.57-5.17-.46-10.45,.62-15.68,.59-1.52,0-3.83-1.07-4.42-2.29-5.92-12.44-4.66-24.23,3-35.8,3.74-5.64,8.18-8.64,14.83-7.94,12.2,1.28,24.35,3.36,36.57,3.92,9.61,.44,18.68,2.57,27.87,4.91,11.32,2.88,17.73,11.53,19.04,26.06,.33,3.62,.73,7.34,.24,10.9-.76,5.59-4.05,6.81-9.48,5.79-7.44-1.4-15.08-2.48-22.37,1.29-1.08,.56-2.54,.41-2.81,1.26-2.24,3.69-4.49,7.38-7.6,12.51,12.55,2.41,23.9,4.58,35.72,6.85,.01-5.11-2.64-6.62-5.56-7.25-6-1.29-12.11-2.08-18.14-3.26-1.22-.24-2.29-1.28-3.43-1.95,1.02-.92,1.95-2.5,3.07-2.64,4.94-.64,9.95-1.35,14.89-1.1,4.3,.22,7.89,2.22,8.59,7.44,.2,1.49,1.71,3.42,3.1,4.01,4.11,1.73,5.24,4.69,4.98,8.76-.13,2.09,.18,4.21,.36,7.58,1.47-2.08,2.18-3.08,3.1-4.4,.74,1.13,1.41,2.15,2.35,3.59,.72-1.31,1.28-2.33,1.83-3.33-.13-.22-.27-.43-.45-.66-.13-.17-.71-.74-.99-.85-1.93-.77-3.89-2.48-3.67-4.82,.88-9.38,5.14-18.46,4.69-27.94-.45-9.49-2.44-18.92-6.15-27.68-3.48-8.21-8.67-16.4-14.89-22.81-5.25-5.41-11.65-8.72-18.41-11.85-11.27-5.23-18.96-15-29.52-21.13-11.15-6.47-25.06,1.2-32.33,10.35-9.86,12.41-12.42,30.83-15.43,45.9-3.65,18.35-5.79,36.91-6.06,55.61-.11,7.72,.23,14.77,2.82,22.11,2.4,6.8,5.71,13.26,8.4,19.94,4.37,10.86,7.03,27.83-7.3,32.73Zm38.49,7.93c-8.61-1.28-20.12-15.02-20.55-24.69,8.89,7.06,16.36,14.28,20.55,24.69Zm-19.98-103.52c3.54-.97,7.18-2.38,10.73-2.25,3.69,.13,7.44,1.56,10.94,2.98,2.02,.83,3.59,2.77,6.33,5-10.15-.67-18.64-1.2-27.12-1.86-.8-.06-1.99-.91-2.15-1.59-.16-.66,.64-2.11,1.27-2.28Z"/><path class="cls-1" d="M127.4,128.83c2.86,5.29,5.76,5.44,10.49,.84,.74,4.27-2.56,9.61-6.22,9.58-6.61-.04-13.32,.21-19.79-.84-4.34-.7-8.38-3.38-12.5-5.28-1.91-.88-3.69-2.01-6.77-3.71l5.63-5.22c2.11,5.76,5.86,6.57,10.34,6.09,1.24-.13,2.7,.11,3.82,.67,8.03,4.01,8.72,3.96,15-2.14Z"/><path class="cls-1" d="M139.15,153.66c-2.52,.29-5.23,1.35-7.52,.76-14.01-3.59-29.1,.84-42.79-4.85l.21-1.85c16.68,1.33,33.37,2.66,50.05,4l.04,1.94Z"/><path class="cls-1" d="M81.98,145.57c1.79-5.81,3.58-7.28,7.37-6.09l-7.37,6.09Z"/></g></g></svg>