<?xml version="1.0" encoding="UTF-8"?><svg id="Layer_2" xmlns="http://www.w3.org/2000/svg" viewBox="0 0 242 224.86"><defs><style>.cls-1{fill:#9932cc;}</style></defs><g id="Layer_1-2"><g><path class="cls-1" d="M208.12,173.11c-10.2-3.33-26.62-6.21-30.83-17.69-1.7-4.65-1.68-9.81-2.06-14.69-.2-2.51-.12-7.86-3.18-8.66-.92,5.04-.95,10.27-1.34,15.41-.09,1.14,.49,2.35,.33,3.46-1.7,11.46,6.48,14.81,14.73,18.34,15.98,6.84,31.93,13.77,47.79,20.91,3.07,1.38,5.64,3.85,8.45,5.82v-8.34c-11-5.51-22.31-10.77-33.88-14.54Z"/><path class="cls-1" d="M158.53,31.84c-3.51-1.35-5.22-7.38-7.74-11.29,.55-.5,1.09-1,1.64-1.5,3.25,3.02,7.26,5.55,9.58,9.16,3.82,5.96,7.71,12.34,9.33,19.08,1.16,4.84,4.55,9.37,3.37,14.89-.24,1.11,2.02,2.58,2.14,3.97,.42,4.77,.47,9.58,.46,14.37,0,.54-1.39,1.61-1.91,1.48-.85-.2-1.91-1.06-2.17-1.87-1.38-4.36-2.54-8.79-3.78-13.2-.61,.12-1.23,.25-1.84,.37,1.74,10.57,3.47,21.15,5.21,31.72,.45,.06,.91,.12,1.36,.18,1.12-3.72,2.24-7.43,3.36-11.15l1.77-.04c.51,2.57,1.91,5.33,1.4,7.67-1.78,8.12-3.91,16.16-5.89,24.23,15.89-9.89,11.09-35.1,6.93-50.63-2.32-8.64-5.32-17.07-8.53-25.41-2-5.2-2.97-10.59-4.18-16.01-1.12-5-2.14-11.98-7.48-14.2-5.14-2.14-11.13-1.17-16.37-3.29-5.57-2.25-9.55-6.65-15.39-8.42-11.45-3.47-24.37-2.36-35.03,3.12-10.97,5.64-17.91,15.84-23.76,26.38-6.07,10.93-10.41,22.75-13,34.97-4.75,22.48-2.87,46.56,9.12,66.38,.21-.4,.4-.81,.58-1.23,.66-1.58,1.84-2.55,3.17-3-.64-1.2-1.32-2.39-2.11-3.56-5.75-8.48-6.76-18.65-8.46-28.49-.11-.62,.07-1.34,.3-1.94,.15-.39,.64-.65,1.06-1.04,2.28,7.64,4.52,15.14,6.77,22.65,.51,0,1.02,0,1.53,0,0-5.12-.39-10.27,.07-15.35,1.43-15.68,2.96-31.36,4.89-46.99,1.03-8.36,6.47-14.52,12.31-20.06,4.28-4.06,9.82-1.66,14.84-1.81,3.9-.12,7.8-.42,11.7-.44,4.44-.02,8.93-.17,13.31,.4,4.22,.55,7.98,.3,11.17-2.7,3.18-3,6.45-2.53,9.37,.07,3.83,3.42,7.25,7.31,11.06,10.75,1.99,1.8,4.46,3.09,7.34,5.03,.87-7.71-1.26-10.89-7.49-13.28Zm-92.22,41.67c-.58-.11-1.16-.23-1.75-.34-.2-4.37-1.83-8.95,1.2-12.86,.55,.07,1.1,.13,1.64,.2-.37,4.34-.73,8.67-1.1,13.01ZM116.27,9.79c4.53-6.29,11.58-7.14,15.08-2.19-4.4,5.01-9.89,.65-15.08,2.19Z"/><path class="cls-1" d="M74.81,139.09c-6.67,10.23-18.31,13.11-30.3,16.15-16.14,4.09-29.91,14.52-44.51,22.43v10.32c8-4.32,15.71-9.35,24.08-12.78,8.57-3.5,17.9-5.07,26.66-8.16,6.84-2.41,13.7-5.24,19.8-9.07,4.15-2.61,6.47-7.55,5.51-13.01-.35-1.99-.76-3.95-1.25-5.88Z"/><path class="cls-1" d="M105.99,193.95c-7.28-8.79-13.94-16.84-20.6-24.89l-1.08,.51,1.37,9.52-1.1,.21c-1.82-7.61-3.65-15.22-5.47-22.83l1.09-.5c1.18,1.41,2.58,2.69,3.5,4.26,4.71,8.05,13.39,11.06,20.37,16.21,2.49,1.84,4.5,6.09,8.65,2.53,7.41,4.16,15.48,.45,23.18,1.8,2.28,.4,5.05-1.41,7.45-2.52,1.42-.65,2.56-1.92,3.82-2.92l1.03,.85c-1.08,1.42-1.89,3.24-3.29,4.21-7.87,5.42-15.95,10.35-26.24,8.15-5.02-1.07-9.64-.57-12.68,5.39Z"/><path class="cls-1" d="M79.41,88.95c-.49-8.7,4.58-13.6,12.04-12.17,6.02,1.15,12.47-.33,17.9,4.67,3.92,3.61,7.87,10.69,6.55,17.35-.49-1.32-.8-1.95-.97-2.62-1.67-6.49-6.17-9.06-12.54-9.97-6.5-.92-12.78-1.61-18.87,1.6-1.1,.58-2.44,.69-4.11,1.13Z"/><path class="cls-1" d="M163.86,159.64c-3.18,24.03-14.49,44.73-27.5,65.22-1.22-6.15-.86-5.92,4.6-14.58,9.95-15.78,18.31-32.35,22.9-50.64Z"/><path class="cls-1" d="M159.7,81.11c-10.32,2.08-19.83,3.99-29.33,5.91-.61-6.22,.3-8.81,6.2-9.64,6.88-.97,14.19-1.94,20.85,1.79,.67,.38,1.21,1.01,2.29,1.94Z"/><path class="cls-1" d="M103.92,92.23c-1.86,2.4-3.2,5.56-5.46,6.49-1.38,.56-4.17-2.32-7.21-4.21-.03,.02-1.07,.97-2.26,1.65-.97,.56-2.11,.8-3.18,1.18,.26-1.29,.08-3,.84-3.8,3.1-3.23,11.73-4.09,17.27-1.32Z"/><path class="cls-1" d="M154.61,94.74c-1.82-.99-3.64-1.98-5.83-3.17-.53,1.4-.65,2.98-1.48,3.6-1.54,1.13-4.15,2.82-5.15,2.25-1.63-.93-2.75-3.4-3.2-5.42-.15-.69,2.37-2.85,3.64-2.83,3.89,.08,7.8,.74,11.61,1.57,.77,.17,1.15,2.1,1.71,3.21l-1.31,.8Z"/><path class="cls-1" d="M105.54,151.57c11.61-3.13,23.33-.1,34.99-.57-11.64,1.44-23.29,2.45-34.99,.57Z"/><path class="cls-1" d="M110.42,129.21c4.78-2.3,7.94-.45,10.44,3.6-3.57-.47-7.81,1.26-10.44-3.6Z"/><path class="cls-1" d="M128.3,163.77c-2.63-.57-5.27-1.13-7.9-1.7l.41-2.03c2.64,.52,5.29,1.04,7.93,1.57l-.44,2.16Z"/></g></g></svg>