<?xml version="1.0" encoding="UTF-8"?><svg id="Layer_2" xmlns="http://www.w3.org/2000/svg" viewBox="0 0 238 235.7"><defs><style>.cls-1{fill:#9932cc;}</style></defs><g id="Layer_1-2"><g><path class="cls-1" d="M0,221.7c14.76-6.34,29.56-12.61,44.28-19.05,9.02-3.94,19-5.84,26.77-12.43,.89-.75,1.74-1.87,2.02-2.96,4.08-16.01,4.16-32.26,2.5-48.56-.41-4-2.56-6.28-6.36-8.79-4.75-3.14-7.69-9.19-11.04-14.24-4.04-6.09-3.73-12.55-.41-18.88,.74-1.41,2.08-2.49,3.04-3.8,1.15-1.58,2.99-3.2,3.11-4.9,.33-4.72-.16-9.48-.19-14.23-.04-5.95,.05-11.91,.12-17.87,0-.48,.18-1.31,.44-1.38,4.1-1.1,4.39-4.18,5.08-7.79,.56-2.9,3.27-5.38,5.16-8.27l2.56,4.14c2.05-4.05,3.76-8.46,6.37-12.26,2.05-2.99,4.81-6.04,7.97-7.6,5.92-2.93,11.65-5.68,15.86-11.13,4.02-5.21,4.3-5,12.52-7.36l-5.56,4.74c7.71,1.45,9.37-5.7,14.11-9.08-.42,4.54-.81,8.72-1.24,13.34,.59-.19,2.33-.25,3.37-1.13,4.93-4.19,10.92-3.05,16.58-3.71,5.2-.6,8.72,1.91,11.93,5.62,1.79,2.07,3.96,4.02,6.33,5.35,6.46,3.6,12.57,6.85,16.81,13.84,3.45,5.69,5.95,11.16,6.53,17.57,.34,3.76-.76,4.45-3.59,3.72-1.03,5.32-2.06,10.69-3.18,16.47,4.28,1.96,9.36,4.3,14.45,6.63l-.55,1.35h-3.59l3.51,2.03c-1.06,3.22-2.11,6.42-3.39,10.31-.26-2.18-.45-3.71-.62-5.11-1.39,.6-2.78,1.21-4.17,1.82,2.88-4.22,3.32-8.38,.13-11.88-2.67-2.93-6.53-4.16-11.13-3.18,6.63,5.06,2.51,10.65,1.18,16.05-.14-1.12-.28-2.23-.52-4.16-1.12,2.04-1.87,3.42-2.85,5.2-1.03-1.68-1.94-3.17-3.73-6.08-1.57,2.19-2.62,4.65-4.48,5.96-1.9,1.33-4.59,1.53-7.24,2.32,3.89,6.66,10.32,8.67,15.82,9.34,2.32-3.68,4.02-6.38,5.72-9.08l1.27,.54c.12,1.39,.24,2.78,.36,4.19l2.8-.43,.96,1.29-6.09,3.15,1.02,1.03,2.46,.49c-.25,.31-.43,.74-.59,.73-10.64-.49-21.22-1.65-27.5-11.75-2.44-3.93-3.25-8.85-4.96-13.26-.47-1.21-1.47-2.21-2.88-4.26-.63,4.1,1.77,7.65-2.43,9.29-.21,.08,.22,2.02,.47,3.07,.71,3.06,1.35,6.15,2.25,9.16,1.24,4.15,2.69,8.25,4.04,12.34,1.72-.27,3.1-.49,5.3-.84-2.49,8.26,5.84,10.54,7.96,16.25,1.36,3.65,3.1,7.22,3.89,10.99,.3,1.42-1.23,4.07-2.61,4.75-1.41,.69-4.31,.32-5.43-.75-3.34-3.19-8.69-4.83-8.98-10.75-.03-.58-2.5-1.14-3.9-1.47-.31-.07-1.31,1.01-1.21,1.28,.52,1.43,1.3,2.77,1.98,4.14l1.62-.33c-2.1,.46-4.19,.93-6.57,1.45,.9,2.28,1.15,4.8-2.75,5.55l9.09,1.79c-.18,1.04-.03,2.32-.59,3.12-2.19,3.14-5.14,5.86-6.79,9.24-1.82,3.73,1.57,6.09,4.19,7.7,2.26,1.39,4.53,3.69,8.15,1.33,2.9-1.9,6.9,1.52,6.84,5.19-.16,9.48-5.37,16.09-12.83,20.9-1.9,1.22-5.26,.11-7.95,.17-1.89,.04-3.78,.27-5.67,.39-1.56,.09-3.29,.6-4.66,.12-8.16-2.9-14.52,.38-15.6,8.73-.56,4.38-.1,8.9-.1,13.67,3.83-.31,7.09-.57,10.69-.86-.44,5.31-.89,10.77-1.34,16.23,.71,3.83,3.31,3.4,6.87,1.64,8.15-4.03,15.68-8.72,21.03-16.27,4.65-6.56,6.53-13.58,2.58-22.88,3.15,2.36,5.02,4.09,7.18,5.31,3.65,2.07,7.44,3.92,11.27,5.67,2.09,.96,4.47,1.3,6.54,2.27,14.38,6.75,28.8,13.44,43.03,20.49,5.3,2.63,10.13,6.19,15.17,9.33v4H0v-14ZM174.74,68.91c-4.22-14.55-13.16-24.93-26.85-30.75-10.17-4.33-18.02-2.16-22.84,5.33l-3.18-2.42-.79,1.14c1.17,.88,2.53,1.6,3.46,2.68,.82,.95,1.78,2.38,1.63,3.45-.6,4.22,.64,6.61,4.96,8.09,4.93,1.68,11.24,2.03,12.36,9.2,.09,.61,1.7,1.33,2.65,1.4,9.42,.7,18.85,1.27,28.58,1.89Zm-56.89,19.67h-14.1c2.27,3.53,10.26,6.18,12.71,4.4,.93-.67,.89-2.67,1.39-4.4Zm36.22-16.01v9.13c2.71-2.38,4.68-4.11,7.2-6.32-2.72-1.06-4.53-1.76-7.2-2.8Z"/><path class="cls-1" d="M154.07,72.57c2.67,1.04,4.49,1.75,7.2,2.8-2.53,2.22-4.5,3.95-7.2,6.32v-9.13Z"/></g></g></svg>