<?xml version="1.0" encoding="UTF-8"?><svg id="Layer_2" xmlns="http://www.w3.org/2000/svg" viewBox="0 0 203.82 206.45"><defs><style>.cls-1{fill:#9932cc;}</style></defs><g id="Layer_1-2"><g><path class="cls-1" d="M35.8,206.45c2.87-3.41,2.74-7.32,2.34-11.49-.19-1.97,.95-4.07,1.94-7.85,1.21,3.4,2.03,5.71,3.01,8.46,.58-.78,1.12-1.52,2.39-3.23,2.14,3.41,4.05,6.46,5.97,9.52,4.7-2.23,6.93-6.28,6.49-11.93-.04-.48-.14-1.03,.03-1.44,3.11-7.24,3.47-12.34,2.17-20.28-.33-2.05,.84-4.35,1.41-6.97-5.53,.73-10.74,1.42-16.68,2.21,7.22-10.56,12.95-21.95,24.86-29.65,1.49,15.12,6.7,28.01,12.9,40.56,.73,1.49,1.37,3.07,2.34,4.39,2.64,3.61,4.22,5.87,.19,10.84-3.22,3.97-1.77,11.43,1.61,16.84H35.8Z"/><path class="cls-1" d="M11.81,206.45c-.12-12.21-4.74-22.93-11.81-33.96,3.15-.57,5.63-.93,8.07-1.47,7.41-1.65,14.79-3.42,22.21-5.01,1.55-.33,4.28-.62,4.63,.05,.97,1.83,1.63,4.31,1.22,6.29-.74,3.56-4.85,6.24-2.06,10.88,.62,1.03-2.35,3.83-2.87,6.01-1.36,5.68-2.29,11.47-3.39,17.22H11.81Z"/><path class="cls-1" d="M119.75,206.45c.72-1.86,1.25-3.81,2.18-5.56,5.19-9.77,10.21-19.66,15.87-29.16,2.29-3.84,6.04-6.8,9.85-10.94,1.63,3.8,2.89,6.72,4.34,10.09-1.64,.38-3.02,.69-4.7,1.08-.44,6.18,4.51,12.87-1.93,18.77-1.25-.63-3.57-1.13-.89-4.23,.69-.8,.1-2.68,.1-4.1-5.81,.84-8.43,3.83-10.2,8.58-1.37,3.68-4.44,6.68-6.42,10.18-.85,1.51-.83,3.51-1.21,5.28h-7Z"/><path class="cls-1" d="M144.74,206.45v-13.75c3.57,2.66,6.29,4.69,9.65,7.19,4.22-11.63,4-21.93-1.5-32.65,4.1,2.33,4.77,4.49,7.37,13.37,1.41,4.81,.03,8.7-2.5,13.65,2.93-.53,4.87-.88,7.37-1.33-.61-2.4-1.2-4.7-1.91-7.46,2.87,3.99,6.04,7.24,7.74,11.13,1.25,2.85,.58,6.53,.77,9.85h-26.99Z"/><path class="cls-1" d="M114.67,9.03l-4.38,1c9.54,1.74,18.42,3.36,27.3,4.98l-.05,1.12-4.08,.84-.3,1c6.01,2.39,12.03,4.79,18.04,7.18,.42-.85,.83-1.71,1.25-2.56-2.51-1.37-5.01-2.74-7.48-4.09l5.32-1.37-4.55-2.1,.24-.85c2.48,.63,4.94,1.38,7.45,1.84,1.07,.2,2.25-.21,3.39-.35-.8-.61-1.55-1.32-2.42-1.81-7.05-3.97-14.12-7.9-21.95-12.27,1.69,0,2.95-.39,3.48,.06,4.23,3.6,8,.93,11.96-.56,8.03-3.03,12.82,.35,12.73,8.84-.08,6.79,6.3,11.6,12.9,9.75,3.6-1.01,8.99,2.01,11.13,5.8,.85,1.5,2.64,2.44,3.81,3.8,1.13,1.3,2.25,2.71,2.94,4.26,.92,2.06,1.42,4.32,2.05,6.34-3.36,2.03-2.64,4.43-.64,7.34,1.68,2.44,2.87,5.22,4.97,7.06,1.29,1.23,3.46,2.28,3.75,3.71,2.18,10.94,3.61,22.01,.44,32.96-.53,1.82-3.35,3.33-5.43,4.29-8.19,3.77-9.83,6.75-8.26,16.06,.8,4.77-.36,7.79-4.23,10.4l-1.08-3.57c-1.64,2.06-3.05,3.82-4.95,6.19-1.09-1.07-2.31-2.21-3.47-3.41-.82-.85-1.56-1.78-2.34-2.67-1.02,.93-2.42,1.68-2.98,2.83-1.18,2.44-2.04,5.06-2.8,7.68-.74,2.55-1.2,5.19-2.74,7.99-.18-2.05-.86-4.21-.45-6.14,.98-4.69,2.25-9.35,3.79-13.89,2.15-6.36,1.66-12.44,.35-19-1.39-6.95-1.04-14.3-1-21.47,.03-5.24,1.65-10.62-1.77-15.35-.8-1.1-2.61-2.45-3.65-2.24-5.07,1.04-9.11-1.15-13.1-3.56-5.75-3.47-8.31-3.29-13.18,1.21-.73,.67-1.49,1.7-2.33,1.79-9.31,1.09-18.63,2.02-28.33,1.92,1.17-1.26,2.34-2.51,3.5-3.77-8.36-3.38-8.28-3.31-16.05,4.96-3.83,4.08-8.15,7.72-11.96,11.82-1.33,1.43-1.94,3.59-2.65,5.5-2.34,6.21-4.58,12.46-6.96,19l-2.13-.67c-.06,.55-.03,1.06-.19,1.51-.42,1.22-.92,2.42-1.39,3.63-1.02-1.09-2.91-2.18-2.9-3.27,.03-5.94,.38-11.89,.91-17.81,.33-3.64,1.19-7.24,1.81-10.85,.2-1.14,.17-2.4,.65-3.41,4.96-10.3,4.63-21.61,6.68-32.47,.91-4.8,4.39-9.64,7.92-13.29,4.24-4.39,9.63-7.75,14.78-11.17,7.85-5.2,8.79-5.11,18.62-.69Zm56.8,57.61c1.75-1.28,3.76-2.02,4.5-3.43,3.07-5.84,6.11-2.55,9.39-.34,2.95-6.71-1.43-11.68-3.9-17.28-6.36,5.02-12.14,17.21-9.98,21.05Zm-22.46-25.35l-.41-1.62c-3,.55-6,1.09-8.99,1.64,1.71,2.1,3.42,4.19,5.14,6.29l2.49,.34c-4.57-5.26-.06-5.17,1.77-6.65Z"/><path class="cls-1" d="M87.24,155.45c3.13-5.33,2.64-8.01-1.78-11.8-.8-.68-1.4-2.42-1.11-3.36,.44-1.4,1.58-3.38,2.72-3.61,3.63-.73,7.39-.76,11.16-.42-2.98,.39-5.96,.79-8.95,1.18-.63,6.31,3.86,7.13,7.51,8.68,10.64,4.52,21.16,4.72,31.62-.67,1.45,3.04-.77,7.96-5.25,8.83-6.9,1.34-13.99,1.82-21.03,2.22-2.11,.12-4.31-1.26-5.4-1.61-3.47,.84-6.22,1.5-8.97,2.17l-.52-1.61Z"/><path class="cls-1" d="M113.57,89.98c-2.46,2.12-4.48,3.5-6.04,5.28-3.49,3.97-6.62,8.25-10.17,12.15-1.08,1.19-3.09,1.54-4.91,1.91,4.89-3.45,9.82-6.71,10.73-13.05-6.81-6.47-14.78-6.44-23.49-4.67,1-4.35,3.63-6.39,6.86-5.99,4.64,.58,9.19,2.12,13.67,3.55,2.24,.72,4.34,3.2,5.81-1,.2-.58,2.48-.85,3.66-.6,2.99,.65,5.9,1.67,9.11,2.62v17.3l-.55,.23-4.69-17.74Z"/><path class="cls-1" d="M126.62,97.36c4.49-5.12,19.53-1.38,22.95,5.54-7.41-1.79-15.13-3.65-22.95-5.54Z"/></g></g></svg>