<?xml version="1.0" encoding="UTF-8"?><svg id="Layer_2" xmlns="http://www.w3.org/2000/svg" viewBox="0 0 163 167.24"><defs><style>.cls-1{fill:#9932cc;}</style></defs><g id="Layer_1-2"><g><path class="cls-1" d="M0,157.24c8.73-4.05,17.34-8.38,26.23-12.05,5.54-2.28,5.94-2.31,3.68-8.06-.79-2.02-2.14-4.03-2.2-6.08-.56-18.44-8.37-35.78-8.21-54.26,.04-4.47-.18-10.05,6.72-11.02,.83-.12,1.85-2.61,1.88-4.02,.12-5.32,.04-10.66-.29-15.98-.45-7.07,1.12-13.57,4.76-19.58,6.05-10,13.62-18.45,24.25-23.83,8.37-4.24,16.64-1.95,24.67,.65,3.75,1.22,4,5.29,3.82,8.98-.15,3.06-.03,6.12-.03,9.6l8.25-.94c-2.47,6.4,2.87,5.76,6.51,7.46l-3.65,1.51c0,2.32,.67,4.5-.13,5.59-2.1,2.85-2.71,5.05,1.07,6.64-5.33,7.07-3.04,13.04,5.13,14.28,6.57,1,12.16,3.44,15.34,9.58,.9,1.73,1.61,4.18,1.05,5.83-.38,1.12-3.13,1.94-4.85,2-5.53,.21-12.44,9.27-10.83,14.52,.42,1.36,.64,2.79,1.07,4.7-1.4-.13-2.41,.09-2.85-.32-5.54-5.03-11.51-9.72-16.23-15.44-2.03-2.46-1.53-7.08-1.93-10.75-.13-1.16,.57-2.4,1.15-4.55-5.11,1.86-6.91,4.98-7.36,9.18-.53,4.95-1.63,9.91-1.46,14.84,.2,5.69,1.35,11.37,2.5,16.97,.22,1.08,2.21,2.23,3.57,2.55,2.64,.61,5.42,.64,9.05,1v-11.75c5.25,4.25,10.35,7.02,13.47,11.26,3.28,4.46,4.67,10.32,6.88,15.56l-1.31,1.38c-1.88-.6-4-.83-5.56-1.88-2.03-1.37-4.1-3.11-5.32-5.18-4.41-7.45-11.19-5.57-17.65-4.75-.72,.09-1.87,2.09-1.69,2.97,.55,2.57,1.58,5.05,2.63,7.47,.26,.6,1.59,1.38,1.92,1.2,6.17-3.54,10.51,1.27,14.93,3.74,5.91,3.31,12.82,5.89,14.8,13.87,.43,1.73,3.31,2.85,5.67,4.74,1.76-2.65,4.22-5.28,5.41-8.38,1.87-4.87,5.27-4.76,9.27-4.12,6.9,1.1,13.81,2.19,20.72,3.21,1.74,.26,3.53,.23,6.29,.4-1.38-1.74-2.11-2.67-3.45-4.37,2.26-.14,3.8-.24,5.34-.34v36.01h-48c3.54-5.55,5.4-11.24,1.74-18.71-3.41,6.65-5.97,12.19-3.74,18.71H0v-10Zm90.25-22.44l-.25,2.27c1.86,.22,3.72,.43,5.58,.65,.06-.84,.22-2.4,.16-2.41-1.82-.26-3.66-.37-5.49-.5Z"/><path class="cls-1" d="M113,167.24c-2.23-6.52,.33-12.06,3.74-18.71,3.66,7.46,1.81,13.16-1.74,18.71h-2Z"/><path class="cls-1" d="M134.75,92.81c-.32-2.02-.88-3.48-.69-4.84,.28-1.95,1.12-3.82,1.72-5.72,1.06,.61,2.95,1.11,3.04,1.84,.3,2.42,.18,4.96-.29,7.35-.12,.6-2.17,.82-3.78,1.38Z"/><path class="cls-1" d="M90.25,134.8c1.84,.13,3.67,.24,5.49,.5,.06,0-.1,1.57-.16,2.41-1.86-.22-3.72-.43-5.58-.65l.25-2.27Z"/></g></g></svg>