<?xml version="1.0" encoding="UTF-8"?><svg id="Layer_2" xmlns="http://www.w3.org/2000/svg" viewBox="0 0 248 241"><defs><style>.cls-1{fill:#9932cc;}</style></defs><g id="Layer_1-2"><g><path class="cls-1" d="M237.75,204.25c-2.76-2.73-5.31-5.69-8.11-8.37-.99-.95-2.48-2-3.72-1.98-7.24,.12-12.2-4.76-18.04-7.74-2.11-1.08-4.39-2.39-6.64-2.5-6.33-.3-12.04-1.93-17.46-5.92,.74-1.38,1.23-2.8,2.12-3.89,7.48-9.09,7.78-19.85,6.9-30.71-1.58-19.38-3.34-38.75-5.38-58.09-.88-8.38-2.66-16.66-3.92-25.01-.18-1.19,.21-2.48,.28-3.17-1.48-3-3.33-5.73-4.24-8.75-1.21-4.01-1.82-6.31-1.65-7.63-.8-1.61-1.4-3.31-1.92-5.05-1.66-1.05-2.99-2.68-4.05-5.13-4.67-10.79-13.04-17.44-24.37-20.65-2.1-.59-3.76-2.74-5.62-4.18,.02-.06,.04-.11,.07-.17-.48-.59-1-1.14-1.57-1.64-.27-.17-.54-.33-.83-.48-.59-.3-1.06-.73-1.43-1.22-.82-.15-1.63-.32-2.43-.53-7.73-2-15.35-1.77-23.24-.44-2.02,.34-4.05,.61-6.09,.82-2.61,1.56-5.04,3.38-7.43,5.29-.93,.75-2.02,1.24-3.11,1.38-4.06,3.15-7.87,6.12-11.76,8.97-2.51,1.84-5.36,3.22-7.37,4.4,.08,.26,1.14,1.89,.72,2.53-2.2,3.28-4.52,6.5-7.07,9.51-.07,.09-.13,.19-.2,.27-1.82,2.06-3.2,4.23-3.68,6.98-.25,1.42-1.29,2.5-2.57,3.1-13.58,30.35-15.62,62.92-24.66,93.73l1.95,.55c.79-2.48,1.57-4.96,2.36-7.44,.46,.13,.91,.26,1.37,.38-1.25,4.65-2.33,9.36-3.81,13.94-1.02,3.15-.11,14.38,2.02,15.88,6.99,4.93,10.18,12.41,13.42,19.81,.39,.89-.73,3.24-1.77,3.83-3.46,1.95-7.11,3.71-10.88,4.95-2.81,.92-5.97,.7-8.88,1.4-2.34,.56-4.52,1.77-6.8,2.61-2.12,.77-4.3,1.36-6.41,2.17-.96,.37-2.58,1.17-2.53,1.63,.4,3.87-2.76,4.72-5.07,5.95-4.57,2.46-7.78,8.12-14.25,6.3v31.01H80c.09-3.65,.44-7.32,.22-10.95-.46-7.67,1.45-14.72,4.75-21.55,.48-1,.23-2.52-.09-3.69-.65-2.38-1.81-4.63-2.37-7.02-1.79-7.76-1.45-8.33,6.53-9.77,3.32-.6,4.82-1.85,3.06-5.29,2.51-1.34,4.85-2.59,7.18-3.83-.65-4.88-4.26-8.8-9.17-10.21-.83-.24-1.68-1.02-2.16-1.77-1.87-2.96-3.31-6.23-5.44-8.97-6.35-8.16-9.85-17.29-10.21-27.62-.13-3.66-.17-7.32-.24-10.98-.14-7.13,5.11-11.25,8.98-16.16,1.91-2.43,3.4-5.21,5.42-7.54,3.61-4.16,8.81-3.58,13.61-3.95,2.4-.18,4.83-.03,7.5-.03-.96-7.74-4.32-11.81-11.86-11.2v-8.95c3.72,.62,6.98,1.16,10.25,1.71,.19-.32,.37-.64,.56-.96-.82-.87-1.54-1.85-2.46-2.6-4.93-4.02-5.23-6.34-3.01-12.09,3.97-10.26,11.21-18.38,17.51-27.03,7.36-10.1,27.66-9.66,33.84,4.59,3.43,7.9,6.38,16.04,8.99,24.24,1.16,3.64,.96,7.71,1.51,12.82-11.03-7.96-20.47-6.24-30.71,2.12,4.39-.46,7.49-.81,10.59-1.1,4.12-.38,8.25-1.1,12.36-.98,4.78,.14,8.27,2.83,9.4,7.58,2.19,9.23,4.08,18.53,6.08,27.8,.03,.16,.06,.34,.03,.5-3.93,18.79-3.03,39.27-19.24,53.77-1.68,1.51-2.33,4.85-2.37,7.36-.06,3.93,.49,7.95,1.36,11.8,.89,3.99,2.99,6.81,7.82,4.41,.66-.32,1.61-.04,2.43-.04,1.77,6.51-3.66,4.57-6.87,5.64,8.66,5.39,14.21-1.42,20.25-4.5-4.05,18.35-8.03,36.39-12.02,54.43h86v-27.01c-3.42-3.24-6.9-6.43-10.25-9.74Z"/><path class="cls-1" d="M149.25,94.71l3.94-2.84-2.38-2.72c-2.55,2.13-4.84,5.5-6.82,5.32-2.34-.21-4.41-3.48-6.59-5.43l.68-1.25-3.78,1.77-.56-.57c.71-.95,1.29-2.03,2.15-2.82,4.04-3.69,17.27-3.33,20.81,.73,1.16,1.34,2.24,3.53,1.96,5.08-.2,1.13-2.61,2.06-4.18,2.7-1.46,.6-3.12,.7-4.7,1.02l-.54-1.01Z"/><path class="cls-1" d="M136.68,144.3c-2.7,.58-5.4,1.64-8.11,1.65-7.73,.05-15.46-.55-23.18-.45-4.23,.05-8.22,.36-11.32-5.53,14.46,3.81,28.15,8.06,42.29,2.51l.31,1.81Z"/></g></g></svg>