<?xml version="1.0" encoding="UTF-8"?><svg id="Layer_2" xmlns="http://www.w3.org/2000/svg" viewBox="0 0 204.4 223.52"><defs><style>.cls-1{fill:#9932cc;}</style></defs><g id="Layer_1-2"><g><path class="cls-1" d="M0,174.52c2.72-.35,5.75-.04,8.09-1.18,7.87-3.81,15.47-8.17,23.21-12.24,1.6-.84,3.4-1.29,5.04-2.06,1.92-.91,4.23-1.56,5.57-3.04,3.64-4.03,6.89-8.43,10.2-12.74,.28-.36-.08-1.2-.16-1.97-2.53,.92-4.85,1.76-7.69,2.78,3.71-15.17,.13-29.11-3.35-42.96-1.93-7.67-5.16-15.02-7.22-22.67-.83-3.07,.42-6.65-.2-9.82-2.55-13.17,7.82-19.98,13.74-29.03,3.35-5.11,7.27-9.26,12.88-11.99,1.72-.83,2.33-3.71,3.83-5.29,3.01-3.18,6.2-6.22,9.47-9.14,2.59-2.31,5.91-3.95,8.03-6.58,7.01-8.72,15.93-7.13,24.67-4.64,11.26,3.21,22.14,7.79,33.47,10.7,6.41,1.65,11.04,5.71,15.44,9.53,7.32,6.35,13.7,13.91,19.75,21.53,3.74,4.71,6.17,10.46,9.12,15.79,4.06,7.33,8.42,14.53,11.92,22.13,2.18,4.72,3,10.07,4.51,15.43l-3.01-.78c-.19,.77-.45,1.38-.48,2.01-.31,6.24-.15,12.54-.99,18.71-1.02,7.54,1.33,12.58,8.57,15.43-2.23-.5-4.46-.99-7.37-1.64-.19,1.71-.57,3.4-.53,5.08,.11,4.6,.76,9.05-5.01,11.48-1.43,.6-1.4,4.72-1.99,7.23-1.29,5.45-2.54,10.91-4.02,17.3l-2.13-3.17c-.78,.91-1.48,1.73-2.51,2.93,.41-3,.75-5.51,1.14-8.33-7.39,4.03-7.79,5.56-2.98,17.29-1.4,2.04-2.44,3.57-3.7,5.42-1.35-2.54-2.69-5.06-4.01-7.57-.63,.99-1.57,2.48-3.08,4.87v-9.58l-1.2-.25c-.78,2.62-1.56,5.24-2.38,7.98-3.26-3.52-8.71-6.37-2.69-12.26,.64,.55,1.43,1.22,2.83,2.42-.49-3.53-.9-6.48-1.5-10.78,2.17,1.48,3.11,2.12,4.44,3.03,1.69-4.64,3.53-8.89-.76-13.12-.53-.53-.1-2.25,.18-3.35,1.6-6.45,3.64-12.82,4.84-19.35,1.01-5.46,1.94-11.2,1.33-16.63-.67-6-3.77-11.13-11.59-11.14,.67-.41,1.33-.83,1.29-.8-1.27-2.12-2.58-4.3-4.23-7.04l-5.29,.65c.87-2.95,1.35-5.33,2.28-7.52,.79-1.86,3.36-3.9,2.96-5.14-1.05-3.23-2.89-6.46-5.22-8.92-1.99-2.1-5.48-2.74-7.63-4.76-2.83-2.66-6.43-4.16-8.38-8.43-1.48-3.26-6.72-4.8-10.37-7.16-2.04,4.76-8.53,7.41-3.27,14.47-4.65-1.92-8.12-4.39-10.87,.19l2.68,1.42c-1.93,3.53-3.78,6.44-5.04,9.6-.26,.64,1.7,3.1,2.7,3.15,4.63,.19,9.28-.32,13.92-.29,3.62,.03,7.36,0,10.82,.89,3.29,.84,5.67,3.06,5.58,7.24-.07,3.1,.8,6.21,1.24,9.21-2.51,1.78-4.99,3.53-7.52,5.32-2.91-2.88-6.03-5.96-9.55-9.44-2.47,5.86-6.83,3.87-11.03,2.49l.04,1.42,4.5,2.63c-6.9,.5-12.73,3.71-18.97,.21-.73-.41-2.43-.09-3,.52-.59,.64-.87,2.42-.41,3.06,3.05,4.22,5.87,8.79,9.67,12.23,4.44,4.02,6.12,9.12,6.05,14.27-.09,6.27-.69,12.25,1.72,18.38,1.27,3.22,.65,7.22,.67,10.87,.04,4.8,6.2,13.62,10.55,15.41,3.32,1.37,6.33,3.49,9.65,4.87,2.98,1.25,6.24,2.89,9.27,2.7,6.95-.44,9.77,.58,11.8,6.82,1.87,5.75,3.31,11.63,5.18,18.3-3.02-1.29-5.09-2.17-7.7-3.28-.88,6.93,4.04,13.13,1.19,19.65h-14c.89-3.17,2.04-6.31,2.58-9.54,.28-1.65-.51-3.49-.82-5.24l-1.33,.23c-1.37,2.13-2.74,4.25-4.27,6.63-9.12-6.15-3.67-14.45-3.32-22.33-2.99,.79-5.9,.83-7.82,2.22-5.23,3.77-10.09,8.04-15,12.23-7.11,6.07-7.06,6.11-13.98-.34-2.56-2.38-4.75-2.41-6.02,1.21-1.75,4.95-3.35,9.95-5.01,14.93h-8c-4.08-1.39-8.15-2.82-12.25-4.15-1.02-.33-2.73,.03-3.13-.58-2.86-4.41-6.11-8.74-8-13.58-2.7-6.89-9.12-12.6-16.51-13.73-6.52-1-13-2.36-19.42-3.92-4.27-1.03-8.32-2.53-9.01,4.68-1.2-1.29-1.87-1.96-2.49-2.68-1.35-1.56-2.67-3.13-4.01-4.7-1.11,2.04-2.16,4.13-3.39,6.1-.25,.4-1.18,.39-1.8,.56,0-5.67,0-11.33,0-17Z"/><path class="cls-1" d="M159.56,121.95c-7.47,6.29-15.53,7.9-22.76,10.37-1.09-2.59-2.05-4.25-2.45-6.03-.33-1.47-.55-3.43,.15-4.59,3.96-6.61,8.22-13.05,12.42-19.62,5.02,2.13,5.37,6.48,5.67,10.17,.35,4.23,1.56,7.37,6.97,9.7Z"/><path class="cls-1" d="M133.93,148.87c4.22,5.04,9.64,7.9,16.95,7.81-3.59,2.44-11.15,2.12-15.61-.32-3.61-1.98-4.15-3-4.02-7.81-1.52-.69-3.11-1.41-6.42-2.92,3.32-2.25,5.51-4.82,8.05-5.24,6.65-1.09,13.45-1.36,20.21-1.71,3.93-.2,4.79,2.84,5.44,5.93,.74,3.55-2.26,2.75-3.96,3.69-5.56,3.08-10.99,3.2-16.55,.07-.95-.53-2.2-.51-3.32-.75l-.77,1.23Zm7.24-4.53c3.74,.42,6.57,.74,9.64,1.09-1.4-4.39-5.09-4.89-9.64-1.09Z"/><path class="cls-1" d="M4.43,195.34c1.08,5.87,4.49,9.05,11.13,8.58l-.17,1.42c-.88,.48-1.88,1.5-2.62,1.34-6.32-1.39-8.55-4.33-8.33-11.34Z"/><path class="cls-1" d="M141.17,144.34c4.55-3.8,8.25-3.3,9.64,1.09-3.07-.35-5.91-.67-9.64-1.09Z"/></g></g></svg>