<?xml version="1.0" encoding="UTF-8"?><svg id="Layer_2" xmlns="http://www.w3.org/2000/svg" viewBox="0 0 201.99 213.14"><defs><style>.cls-1{fill:#9932cc;}</style></defs><g id="Layer_1-2"><g><path class="cls-1" d="M188.6,40.64c-2.49-5.97-5.42-11.76-8.28-17.57-.64-1.31-1.56-2.96-2.75-3.43-9.97-3.97-17.11-13.26-28.35-14.82C137.74,3.21,126.31,.99,114.78,.02c-3.22-.27-7.17,2.35-9.99,4.62-4,3.23-7.62,6.04-13.26,5.5-2.79-.27-5.75,1.18-9.54,2.07v-.11c-1.07,.32-2.11,.68-3.14,1.06-12.36,9.43-23.8,20.15-33.1,32.58-1.77,10.52-2.58,21.24-3.17,31.84,6.36,4.59,2.64,15.05-3.15,19.93-1.02,.86-2.12,1.59-3.26,2.25,3.36-1.07,6.85-1.7,10.41-1.63,2.86,.05,5.03,.87,6.68,2.21-.15-9.23,6.42-15.02,16.56-13.77,3.25,.4,4.41-1,4.75-3.54,.79-5.95,3.36-10.16,8.75-13.56,4.75-3,7.95-8.32,12.42-11.89,6.84-5.47,13.86-10.87,21.4-15.27,7.54-4.4,15.48-8.86,23.83-10.94,14.14-3.52,28.71-3.85,40.37,7.15,3.13,2.95,4.34,7.99,6.25,12.16,1.07,2.34,1.76,4.85,3.01,8.37,1.65-7.19,.31-12.94-1.98-18.43ZM58.28,60.37c-5.41,2.92-6.75,7.86-6.97,13.64-.48-.19-.96-.38-1.43-.57,.92-4.9,1.77-9.81,2.81-14.69,.18-.86,1.01-1.98,1.78-2.24,2.16-.73,4.45-1.07,6.68-1.57-.93,1.86-1.38,4.62-2.88,5.43ZM149.98,26.1c.81-.6,1.63-1.2,2.65-1.95-2.78-5.47-9.05-1.08-12.74-4.25,12.36-6.1,38.63-1.17,41.11,15.26-9.48-6.82-19.74-9.26-31.03-9.06Z"/><path class="cls-1" d="M199.43,153.34c-2.35-9.52-4.27-19.21-7.47-28.45-1.87-5.41-5.89-10.07-9.17-15.45,1.16-1.01,2.72-2.38,4.29-3.76-7.95-7.83-11.64-8.36-24.11-2.74,2.3,1.16,3.69,2.16,5.25,2.61,5.1,1.46,6.29,4.35,2.54,8.06-2.1,2.07-5.2,3.6-8.1,4.28-6.53,1.55-12.43,3.67-16.19,9.75-2.01,3.26-4.94,1.65-6.89,.23-4.81-3.5-6.21-3.7-9.93,.09-.6-.89-1.19-1.78-1.99-2.98-.95,1.17-1.64,2.02-2.64,3.26-3.53-4.9-8.19-9.18-10.07-14.45-3.18-8.95-11.98-11.06-17.5-16.95-1.77-1.9-3.01-4.31-4.43-6.52-.88-1.36-1.37-3.11-2.54-4.09-1.1-.92-3.24-1.83-4.23-1.35-1.11,.54-2.2,2.77-2,4.08,.66,4.42,1.11,9.14,3.08,13.03,3.8,7.51,1.97,15.05,1.13,22.52-.19,1.68-3.82,4.44-5.56,4.23-9.98-1.21-19.43-5.72-24.94-13.92,.02,6.46-1.19,13.34-1.64,17.67-.77,7.39,.21,14.74-.35,22.14-.84,11.06-5.35,18.56-14.5,24.74-5,3.38-10.1,6.31-14.77,10.17-4.73,3.91-9.33,7.97-13.89,12.07-4.28,3.84-8.53,7.71-12.81,11.54H100.84c-2.89-5.68-5.75-11.38-8.72-17.02-.34-.65-1.26-1.33-1.97-1.4-10.69-1.07-15.01-11.2-22.99-16.13-2.93-1.81-.45-4.02,.74-5.94,1.51-2.43,3.14-1.81,4.96-.4,1.94,1.51,3.97,2.9,5.96,4.35,4.81-3.31,2.41-7.95,2.7-11.76,.62-8.21,.4-16.48,.78-24.71,.05-1.13,1.45-2.87,2.49-3.09,.93-.2,2.9,1.06,3.26,2.09,1.88,5.32,2.32,11.47,5.29,16,3.76,5.73,4.57,13.09,10.8,17.61,3.45,2.51,5.1,7.39,8.01,10.82,1.32,1.55,4.47,1.71,5.49,3.32,1.9,2.99,3.15,2.04,5.03-.37,3.05,5.44,5.9,10.53,8.82,15.74,.37-1.46,.71-2.78,1.04-4.1,.83,.74,1.68,2.15,2.49,2.13,4.57-.13,4.55,3.92,6.43,5.45,1.23,.21,2.61,.88,3.68,.55,4.19-1.28,8.29-2.85,12.39-4.39,.31-.12,.42-.87,.56-1.35,1.95-6.49,4.94-10.45,13.07-10.28,8.14,.17,14.92-5.16,21.27-10.08,2.05-1.59,3.77-3.62,5.63-5.47,6.74-6.7,3.18-14.11,1.39-21.35Zm-16.79-35.85l1.86,.17c.43,1.91,1.13,3.82,1.14,5.73,0,.64-1.93,1.95-2.72,1.77-1.41-.32-2.62-1.53-3.92-2.37,1.21-1.77,2.43-3.54,3.64-5.31Zm3.11,33.47c-1.24,.74-3.4,1.04-4.64,.47-9.82-4.49-19.51-9.23-29.45-14,.28-7.36,2.01-9.18,9.56-9.4,6.11-.17,12.22-.44,18.32-.35,3.69,.06,6.17,1.81,6.61,5.99,.2,1.87,1.23,3.76,2.23,5.43,2.73,4.55,1.92,9.15-2.64,11.85Z"/><path class="cls-1" d="M70.47,105c.7-1.24,1.51-2.68,2.28-4.06q-5.71-6.23-15.09-8.34c2.03-1.14,4.12-3.33,6.07-3.22,7.63,.44,9.69,7.11,12.79,13.23,.93-1.3,1.58-2.2,1.65-2.31l4.64,16.4c-1.4-.56-3.41-.79-4.46-1.91-2.76-2.94-5.11-6.27-7.89-9.79Z"/><path class="cls-1" d="M156.63,69.98v7.06c-6.12,0-11.92,.07-17.72-.04-1.75-.03-3.53-.44-5.18-1.01-.32-.11-.35-2.52-.08-2.61,1.48-.5,3.09-.64,4.66-.86,5.97-.84,11.94-1.65,18.32-2.54Z"/><path class="cls-1" d="M190.32,88.63l-4.47-8.26,.91-1.1c1.92,.94,4.57,1.41,5.55,2.94,.96,1.5,.21,4.08,.21,6.19l-2.19,.22Z"/><path class="cls-1" d="M155.86,61.32c-4.31-.66-8.63-1.31-12.94-1.97l.09-.29h13.11l-.25,2.26Z"/><path class="cls-1" d="M182.64,142.02c-3.55,.33-6.28,.32-6.17-3.55,.02-.6,1.68-1.51,2.68-1.65,4.41-.64,3.14,2.59,3.5,5.2Z"/></g></g></svg>