<?xml version="1.0" encoding="UTF-8"?><svg id="Layer_2" xmlns="http://www.w3.org/2000/svg" viewBox="0 0 241 221.13"><defs><style>.cls-1{fill:#9932cc;}</style></defs><g id="Layer_1-2"><g><path class="cls-1" d="M0,148.13v-7c5.03-4.08,11.41-6.9,13.19-14.04l-.02,.22c.28-7.12,1.88-7.94,9.88-4.74l1.13-3.13c2.12,1.41,5.3,2.33,5.89,4.11,2.19,6.62,7.76,5.95,12.56,6.3,1.67,.12,4.46-2.08,5.08-3.82,.97-2.7,.29-5.47-3.74-6.09-5.02-.77-9.95-2.13-14.93-3.23,.73-2.5,2.13-4.98,1.53-5.65-3.31-3.68-1.14-7.2,.41-10.11,3-5.61,6.82-10.78,10.34-16.1,.2-.31,.76-.37,1.24-.59l-.45,3.64,1.36,.48c.79-1.82,1.96-3.57,2.28-5.46,.56-3.28,.06-6.81,1.01-9.93,1.14-3.76,3.4-7.17,5.06-10.79,3.26-7.11,7.52-13.42,13.49-18.41l1.97,.69c-1.5,8.17-3,16.34-4.5,24.51,6.87-15.66,5.09-34.84,19.92-48.05l.41,3.47c1.54-1.89,2.6-3.53,3.99-4.83,3.54-3.32,6.71-7.86,10.95-9.44,10.78-4.02,21.93-7.36,33.2-9.62,5.91-1.18,12.5-.07,18.57,1.09,3.68,.7,7.39,3.06,8.12,7.92l-3.5,1.09c6.56,3.66,12.7,6.96,18.7,10.51,2.03,1.2,5.03,2.5,3.1,4.85,3.15,2.76,6.26,5.43,9.32,8.17,6.66,5.95,11.74,12.75,13.3,21.91,.86,5.09,1.14,11.67,4.38,14.67,5.7,5.28,3.61,12.74,7.51,18.15,.66,.92,.1,3.57-.82,4.58-2.1,2.31-.7,7.74-6.14,7.13-.2-.02-.81,.89-.71,1.21,1.1,3.49,1.51,7.58,3.65,10.29,5.04,6.38,6.79,14.18,10.39,21.14,.04,.07-.16,.27-.26,.42l-3.5-2.65-1.8,.36c-.09,5.59-.21,11.18-.25,16.77-.01,1.47,.82,3.32,.2,4.36-2.28,3.82,.26,6.18,2.13,8.81,.76,1.07,1.64,2.05,2.47,3.08,1.45,1.87,2.9,3.74,4.35,5.62,.69,3.94,1.38,7.88,2.2,12.54,2.72,.84,4.95,3.03,4.9,7.53-.02,1.83,1.95,3.73,3.15,5.5,1.1,1.62,2.39,3.1,3.62,4.67-5.92,3.3,.92,6.89-.53,9.93-2.03-2.58-4.11-5.22-6.19-7.86,.57,3.96,2.12,7.32,2.37,10.78,.19,2.63-1.27,5.38-2,8.07h-90c1.03-2.62,1.79-5.39,3.13-7.84,3.42-6.24,2.29-14.99,11.59-18.49-5.31-4.97-9.65-9.37-14.39-13.3-2.29-1.89-2.74-3.81-.52-5.1,3.78-2.19,1.82-4.64,.47-6.46-.73-.98-3.51-1.33-4.85-.76-2.63,1.13-3.98,.62-5.16-1.83-1.65-3.42-3.48-6.76-5.31-10.27,10.1,3.49,18.37-2.18,26.65-7.89,.95-.66,2.04-1.12,3.04-1.72,9.51-5.72,16.49-13.59,19.31-24.45,5.25-20.28,7.14-40.99,6.35-61.87-.18-4.73-2.74-9.46-4.66-14-1.94-4.58-4.38-8.95-6.74-13.34-.65-1.21-1.6-2.67-2.77-3.14-7.15-2.88-14.47-4.71-22.33-3.17-3.04,.59-6.23,.42-9.51,.6l.58-2.49-5.05-.7,1.82-1.34-.61-1.15c-2.36,1.17-4.62,2.62-7.09,3.48-10.65,3.67-17.01,12.8-25.25,19.54-.37,.3-.65,.79-.81,1.25-2.79,8.15-6.31,16.14-8.13,24.5-2.51,11.52-3.86,23.31-5.47,35.02-1.91,13.88,.46,26.29,12.94,34.9,.52,.36,.87,.94,1.31,1.42h-1.5c-.37,1.92-1.23,3.89-1.02,5.74,.42,3.79,1.65,7.48,2.12,11.26,.77,6.18,1.56,12.4,1.67,18.62,.12,6.84,5.43,13.65,.24,20.61-.31,.42,.54,1.8,.98,2.66,.74,1.43,1.59,2.8,2.35,4.11-2.18,2.17-4.05,4.02-5.15,5.12,1.43,3.97,2.6,7.22,3.78,10.48H17c.96-1.17,1.87-2.39,2.9-3.49,2.36-2.53,4.79-5.01,7.19-7.51l-.43-1.45c-5.69,2.66-6.99-1.96-8.1-4.87-.6-1.57,1.92-4.33,3.65-7.77,2.83,4.43,4.7,7.36,6.97,10.92,1.79-2.61,3.11-4.52,4.42-6.44-5.42,2.05-5.91-2.62-7.48-4.89-2.62-3.78,.94-5.46,3.33-8.17,1.98,2.47,3.7,4.61,5.9,7.35-.64-9.58-5.37-19.86-13.32-23.09C12.89,168.01,7.06,169.19,0,177.13v-13c1.59-3.18,3.39-6.28,4.69-9.57,.67-1.71,1.12-4.13,.39-5.56-.47-.92-3.3-.62-5.07-.87Zm86.19,46.75c3.87-3.32,3.25-7.63,2.7-11.37-1.13-7.66-3.13-15.12-8.84-20.61l-1.48,.63c2.47,10.15,4.94,20.29,7.63,31.35ZM48.95,82.4l-5.13,8.63c.76,.35,1.37,.84,1.59,.71,2.07-1.28,4.07-2.66,6.33-4.18l-2.79-5.16ZM186.64,42.41l-.98,.18c-.19,3.31-.37,6.62-.58,10.3l4.85-3.26c-1.17-2.57-2.23-4.9-3.29-7.22Zm.54,145.83c.47-6.83,.05-7.42-5.77-8.88,2.26,3.49,4.02,6.19,5.77,8.88Zm7.34,4.6c-.3-10.84-.62-11.53-5.81-14.14,1.73,4.21,3.53,8.58,5.81,14.14Z"/><path class="cls-1" d="M0,148.13c1.77,.25,4.6-.05,5.07,.87,.74,1.43,.29,3.85-.39,5.56C3.39,157.85,1.59,160.94,0,164.13v-16Z"/><path class="cls-1" d="M13.19,127.09C11.41,134.22,5.03,137.04,0,141.13v-4c4.4-3.35,8.8-6.69,13.19-10.04Z"/><path class="cls-1" d="M13.19,127.09c-4.4,3.35-8.8,6.69-13.19,10.04,0-2,0-4,0-6,2.74-1.67,5.34-3.67,8.27-4.85,1.29-.52,3.25,.63,4.9,1.03l.02-.22Z"/><path class="cls-1" d="M14,221.13c-1.21-2.33-2.59-4.59-3.59-7-.65-1.56-.75-3.35-.55-5.14,4.69,2.71,6.5,7.79,5.14,12.14h-1Z"/><path class="cls-1" d="M236,221.13c.39-2.66,.78-5.31,1.3-8.84l3.7,2.84v6h-5Z"/><path class="cls-1" d="M8,221.13c-.81-2.11-1.65-4.2-2.35-6.34-.05-.15,1.42-.95,1.44-.93,1.33,1.91,2.61,3.85,3.81,5.84,.22,.37,.08,.95,.1,1.44h-3Z"/><path class="cls-1" d="M241,201.13c-.11-.24-.25-.47-.31-.73-.02-.06,.2-.18,.31-.27v1Z"/><path class="cls-1" d="M88.89,183.51c.55,3.74,1.17,8.05-2.7,11.37-2.69-11.06-5.16-21.2-7.63-31.35l1.48-.63"/><path class="cls-1" d="M216.12,164.34c2.12-2.38,4.98-2.57,6.84,.62,2.47,4.25,3.9,9.1,5.72,13.72,.19,.49-.05,1.15-.16,2.66-3.03-4.28-5.53-7.82-8.04-11.37-1.46-1.89-2.91-3.76-4.36-5.63Z"/><path class="cls-1" d="M45.4,91.73c-.22,.14-.83-.35-1.59-.71l5.13-8.63"/><path class="cls-1" d="M185.09,52.89c.21-3.68,.39-6.99,.58-10.3l.98-.18"/><path class="cls-1" d="M181.42,179.36c5.82,1.47,6.23,2.05,5.77,8.88"/><path class="cls-1" d="M194.52,192.84c-2.28-5.56-4.08-9.92-5.81-14.14"/><path class="cls-1" d="M148.46,87.08c-3.5-4.45-2.17-12.89,1.9-16.82,3.59-3.47,16.29-3.43,19.95,.26l-15.56,4.23c0,.67,.02,1.34,.02,2.01,5.91,.02,11.99-.2,15.07,5.86,.51,1-.11,2.57-.27,4.64-2.36-1.68-4.29-2.53-5.43-4-1.72-2.22-3.06-2.67-5.19-.62-.56,.54-2.11,.75-2.8,.37-4.08-2.25-6.41-.7-7.71,4.08Z"/><path class="cls-1" d="M152.03,99.8c1.24,3.89,2.56,7.75,3.68,11.67,.4,1.41-.12,3.2,.54,4.4,3.09,5.64,.71,9.78-2.83,13.13h-12.26c3.08-3,4.55-7.06,10.04-6.17,2.71,.44,3.5-2.76,1.94-5.16-1.15-1.78-3.61-2.97-4.14-4.81-.55-1.9,.59-4.26,.87-6.44,.26-2.05,.34-4.13,.5-6.19l1.65-.44Z"/><path class="cls-1" d="M112.61,72.64h-5.78c7.99-4.56,15.69-3.09,18.26,2.63-1.33-.26-3.4-1.19-3.88-.67-4.24,4.66-6.45,1.61-8.61-1.96Z"/><path class="cls-1" d="M126,64.37l-6.6-3.33,.55-1.5,7.08,2.76-1.03,2.08Z"/></g></g></svg>