<?xml version="1.0" encoding="UTF-8"?><svg id="Layer_2" xmlns="http://www.w3.org/2000/svg" viewBox="0 0 197.52 229.12"><defs><style>.cls-1{fill:#9932cc;}</style></defs><g id="Layer_1-2"><path class="cls-1" d="M172.05,210.11c-4.56-.92-8.92-2.46-12.58-5.14-6.52-2.09-13.5-7.85-14.63-12.57-.45-1.88,.23-4.43,1.23-6.19,6.11-10.78,12.92-21.18,18.58-32.17,5.06-9.82,10.06-19.95,12.94-30.53,1.7-6.23,7.38-12.63,2.49-19.74,6.94-4.88,5.26-23.94-.66-27.03-.54-3.35-.36-5.9-1.36-7.85-3.56-6.92-7.44-13.67-11.4-20.37-.8-1.35-2.47-2.18-3.72-3.27-3.35-2.93-7.51-5.33-9.86-8.92-3.97-6.07-9.61-9.45-15.6-12.79-3.16-1.76-5.99-4.11-9.04-6.09-1.79-1.16-3.62-2.34-5.58-3.15-4.1-1.7-8.52-2.78-12.42-4.83-5.79-3.05-11.25-3.94-18.04-3.08-6.33,.8-13.89,2.79-19.82-2.77-.31-.29-1.4,.41-2.05,.28-3.78-.76-7.53-1.65-11.3-2.45-1.73-.37-3.46-.77-5.21-.95-2.73-.28-5.48-.61-8.2-.46-1.94,.11-3.84,.97-5.64,1.46,.41,4.82,1.43,8.95,.84,12.84-.33,2.13-3.38,3.85-5.35,5.9,3.73,6.43,4.19,6.2,11.56,3.34,4.98-1.94,10.48-2.95,15.84-3.42,6.09-.53,12.28-.05,18.42,.09,7,.16,12.48,3.54,15.01,9.79,2.69,6.63,3.25,13.64-3.06,19.28-2.22,1.98-4.09,4.34-6.22,6.64-3.36-.83-7.38-3.16-10.09-2.11-2.68,1.04-4.03,5.5-5.96,8.46l1.02,.97c-.8,.09-1.62,.35-2.4,.25-10.39-1.28-20.8-2.42-31.14-4.01-5.75-.89-11.23-1.6-16.17,2.35-.38,.31-.85,.52-1.31,.71-2.25,.95-5.51,1.24-6.57,2.93-2.99,4.74-4.59,10.14-3.54,16.91,3.4-2.63,6.4-4.65,9.02-7.07,2.6-2.41,4.35-2.14,5.65,1.04,3,7.35,9.8,9.8,16.3,12.5,1.13,.47,2.83-.44,4.27-.69,2.09-.36,4.18-.79,6.29-1.02,2.74-.3,5.49-.61,8.24-.6,2.74,.01,5.48,.54,8.22,.58,1.05,.02,2.13-.67,3.18-1.05,4.63-1.7,9.25-3.67,14.93-.09-8,4.46-15.04,8.88-23.69,10.78-6.96,1.53-13.69,4.57-20.16,7.68-2.94,1.42-5.1,1.82-6.96-.64-2.18-2.87-3.8-6.16-5.73-9.22-.95-1.5-1.76-3.39-3.16-4.25-4.97-3.06-6.65-2.03-6.73,4.42-1.76-.23-3.43-.49-5.11-.67-3.29-.36-6.62-1.12-9.86-.85-1.93,.16-5.16,1.85-5.28,3.09-.22,2.33-1.33,5.8,3.18,6.92,3.06,.76,4.62,7.22,3.16,10.24-2.5,5.17-5.06,10.31-6.83,16.04,.79-.67,1.57-1.34,2.8-2.38,.62,1.41,1.34,2.63,1.72,3.96,1.95,6.74,1.92,6.75,8.83,5.36-2.9,1.58-5.8,3.16-9.88,5.38,.43,2.51,1.04,6.08,1.72,10.11,6.75-2.72,12.85-4.15,18.93-1.14,.06,.53,.13,1.06,.19,1.59-3.76,.6-7.51,1.45-11.29,1.73-4.54,.33-8.48,1.83-9.89,6.23-1.49,4.65,.18,9.31,4.06,12.06,14.03,9.95,23.19,24.2,33.56,37.35,3.51,4.45,5.92,9.77,9.22,15.35-.35,.1-.67,.2-.97,.3,1.17,.99,2.53,1.9,3.64,2.78,.32,.25,.58,.56,.79,.89H191.94c.24-6.4,.57-6.99,5.58-9.64-8.59-3.16-17.04-6.27-25.47-9.37ZM36.95,118.29c-2.16-.5-3.8-.75-5.34-1.27-2.18-.74-4.3-1.69-6.44-2.55,1.74-2.79,3.41-5.63,5.28-8.33,.23-.34,1.96-.27,2.15,.08,1.95,3.58,5.96,6.44,4.35,12.07Z"/></g></svg>